<svg width="88" height="128" fill="none" xmlns="http://www.w3.org/2000/svg"><path d="M19.078 103.128c0 .416.043.805.128 1.168.096.363.235.677.416.944.192.256.432.459.72.608.299.149.65.224 1.056.224.405 0 .752-.075 1.04-.224.299-.149.539-.352.72-.608.192-.267.33-.581.416-.944.096-.363.144-.752.144-1.168 0-.416-.048-.8-.144-1.152a2.465 2.465 0 00-.416-.928 1.853 1.853 0 00-.72-.624c-.288-.149-.634-.224-1.04-.224-.405 0-.757.075-1.056.224a2.019 2.019 0 00-.72.624c-.181.256-.32.565-.416.928a4.887 4.887 0 00-.128 1.152zm-1.328 0c0-.565.07-1.093.208-1.584.15-.491.373-.912.672-1.264a3.033 3.033 0 011.136-.848c.459-.213 1.003-.32 1.632-.32.63 0 1.174.107 1.632.32.459.203.837.485 1.136.848.299.352.517.773.656 1.264.15.491.224 1.019.224 1.584a5.43 5.43 0 01-.224 1.584 3.47 3.47 0 01-.656 1.28 3.178 3.178 0 01-1.136.864c-.459.203-1.003.304-1.632.304-.63 0-1.173-.101-1.632-.304a3.18 3.18 0 01-1.136-.864 3.67 3.67 0 01-.672-1.28 5.81 5.81 0 01-.208-1.584zm11.12 2.976c.63 0 1.078-.112 1.345-.336.266-.235.4-.507.4-.816a.878.878 0 00-.144-.512 1.325 1.325 0 00-.384-.384 2.15 2.15 0 00-.56-.288 8.869 8.869 0 00-.688-.24 8.343 8.343 0 01-.96-.352 3.1 3.1 0 01-.752-.464 2.019 2.019 0 01-.48-.64 2.318 2.318 0 01-.16-.896c0-.651.245-1.157.736-1.52.501-.363 1.194-.544 2.08-.544.437 0 .858.043 1.264.128.416.075.784.197 1.104.368l-.304 1.008a4.4 4.4 0 00-.912-.32 4.04 4.04 0 00-1.04-.128c-.576 0-.992.096-1.248.288-.256.192-.384.432-.384.72 0 .341.133.597.4.768.266.171.63.331 1.088.48.437.139.821.288 1.152.448a2.9 2.9 0 01.816.528c.224.192.39.416.496.672.117.256.176.555.176.896 0 .661-.24 1.195-.72 1.6-.47.395-1.222.592-2.256.592-.512 0-.982-.043-1.408-.128a3.337 3.337 0 01-1.072-.368l.304-1.008c.288.139.613.251.976.336a5.59 5.59 0 001.136.112zm10.155-6.832h1.344V107H39.28l-.256-1.312a3.53 3.53 0 01-.384.512c-.16.171-.352.331-.576.48a3.077 3.077 0 01-.784.336 3.078 3.078 0 01-.976.144c-.374 0-.715-.053-1.024-.16a2.083 2.083 0 01-.784-.544 2.93 2.93 0 01-.512-.96c-.118-.395-.176-.864-.176-1.408v-4.816h1.312v4.816c0 .597.128 1.061.384 1.392.266.331.613.496 1.04.496.576 0 1.061-.149 1.456-.448a4.505 4.505 0 001.024-1.04v-5.216zM44.106 107h-1.343v-7.728h1.12l.223 1.152a3.86 3.86 0 01.352-.432c.14-.16.305-.304.497-.432s.41-.235.656-.32c.256-.085.544-.128.864-.128.511 0 .933.133 1.264.4.33.267.57.629.72 1.088a3.341 3.341 0 011.008-1.04 2.576 2.576 0 011.488-.448c.767 0 1.333.261 1.696.784.362.523.543 1.2.543 2.032V107h-1.312v-5.072c0-.491-.096-.885-.288-1.184-.191-.299-.5-.448-.928-.448a1.68 1.68 0 00-.655.128c-.203.075-.39.181-.56.32a3.18 3.18 0 00-.465.464 4.04 4.04 0 00-.335.528V107h-1.313v-5.072c0-.491-.096-.885-.288-1.184-.191-.299-.495-.448-.911-.448-.47 0-.88.128-1.233.384a2.617 2.617 0 00-.8.912V107zm12.253-3.872c0 .416.043.805.128 1.168.096.363.235.677.416.944.192.256.432.459.72.608.299.149.651.224 1.056.224.406 0 .752-.075 1.04-.224a1.91 1.91 0 00.72-.608 2.62 2.62 0 00.416-.944c.096-.363.144-.752.144-1.168 0-.416-.048-.8-.144-1.152a2.467 2.467 0 00-.416-.928 1.855 1.855 0 00-.72-.624c-.288-.149-.634-.224-1.04-.224-.405 0-.757.075-1.056.224a2.019 2.019 0 00-.72.624 2.85 2.85 0 00-.416.928 4.882 4.882 0 00-.128 1.152zm-1.328 0c0-.565.07-1.093.208-1.584a3.52 3.52 0 01.672-1.264 3.032 3.032 0 011.136-.848c.459-.213 1.003-.32 1.632-.32.63 0 1.174.107 1.632.32.459.203.838.485 1.136.848.299.352.518.773.656 1.264a5.42 5.42 0 01.224 1.584 5.42 5.42 0 01-.224 1.584 3.472 3.472 0 01-.656 1.28 3.18 3.18 0 01-1.136.864c-.458.203-1.002.304-1.632.304-.629 0-1.173-.101-1.632-.304a3.178 3.178 0 01-1.136-.864 3.667 3.667 0 01-.672-1.28 5.805 5.805 0 01-.208-1.584zm14.353-3.856h1.344V107H69.64l-.256-1.312a3.53 3.53 0 01-.384.512c-.16.171-.352.331-.576.48a3.077 3.077 0 01-.784.336 3.078 3.078 0 01-.976.144c-.373 0-.715-.053-1.024-.16a2.082 2.082 0 01-.784-.544 2.93 2.93 0 01-.512-.96c-.117-.395-.176-.864-.176-1.408v-4.816h1.312v4.816c0 .597.128 1.061.384 1.392.267.331.613.496 1.04.496.576 0 1.061-.149 1.456-.448a4.507 4.507 0 001.024-1.04v-5.216zm-44.735 16v1.088h-2.224V123h-1.312v-6.64h-1.184v-1.088h1.184v-.256a3.04 3.04 0 01.832-2.112c.266-.267.576-.475.928-.624a3.002 3.002 0 011.152-.224c.544 0 .992.091 1.344.272a3.4 3.4 0 01.912.608l.16-.72h1.184V123H26.28v-9.104a2.898 2.898 0 00-.816-.528 2.471 2.471 0 00-1.056-.224c-.608 0-1.094.171-1.456.512-.352.331-.528.789-.528 1.376v.24h2.224zm6.226 3.856c0 .416.043.805.128 1.168.096.363.235.677.416.944.192.256.432.459.72.608.299.149.65.224 1.056.224.405 0 .752-.075 1.04-.224.299-.149.539-.352.72-.608.192-.267.33-.581.416-.944.096-.363.144-.752.144-1.168 0-.416-.048-.8-.144-1.152a2.465 2.465 0 00-.416-.928 1.853 1.853 0 00-.72-.624c-.288-.149-.635-.224-1.04-.224s-.757.075-1.056.224a2.019 2.019 0 00-.72.624c-.181.256-.32.565-.416.928a4.887 4.887 0 00-.128 1.152zm-1.328 0c0-.565.07-1.093.208-1.584.15-.491.373-.912.672-1.264a3.033 3.033 0 011.136-.848c.459-.213 1.003-.32 1.632-.32.63 0 1.173.107 1.632.32.459.203.837.485 1.136.848.299.352.517.773.656 1.264a5.42 5.42 0 01.224 1.584 5.42 5.42 0 01-.224 1.584 3.47 3.47 0 01-.656 1.28 3.18 3.18 0 01-1.136.864c-.459.203-1.003.304-1.632.304-.63 0-1.173-.101-1.632-.304a3.18 3.18 0 01-1.136-.864 3.667 3.667 0 01-.672-1.28 5.805 5.805 0 01-.208-1.584zm15.393.368c.106.352.197.704.272 1.056.074.341.154.741.24 1.2h.032c.042-.48.09-.949.144-1.408.053-.469.117-.859.192-1.168l.896-3.904h1.328L46.204 123h-1.328l-1.248-3.92a15.02 15.02 0 01-.368-1.28 48.1 48.1 0 01-.256-1.344h-.032c-.086.48-.176.928-.272 1.344-.086.405-.203.832-.352 1.28L41.1 123h-1.328l-1.84-7.728h1.328l.896 3.904c.074.309.138.699.192 1.168.053.459.101.928.144 1.408h.032c.085-.459.165-.859.24-1.2.074-.352.165-.704.272-1.056l1.312-4.224h1.28l1.312 4.224zm5.513.24c.085.757.336 1.339.752 1.744.416.395 1.014.592 1.792.592.33 0 .678-.032 1.04-.096a3.854 3.854 0 001.008-.32l.304.992c-.672.341-1.498.512-2.48.512-1.258 0-2.197-.363-2.816-1.088-.618-.725-.928-1.707-.928-2.944 0-.565.064-1.093.192-1.584a3.4 3.4 0 01.608-1.264 2.95 2.95 0 011.088-.848c.448-.213.992-.32 1.632-.32 1.056 0 1.835.299 2.336.896.512.587.768 1.376.768 2.368 0 .277-.016.523-.048.736a4.022 4.022 0 01-.112.624h-5.136zm2.192-3.6c-.384 0-.71.069-.976.208-.266.128-.49.309-.672.544-.17.224-.304.496-.4.816-.096.32-.154.667-.176 1.04h4.08v-.368c0-.704-.144-1.253-.432-1.648-.277-.395-.752-.592-1.424-.592zm6.383.448c.096-.171.208-.341.336-.512a3.23 3.23 0 01.464-.464 2.47 2.47 0 01.592-.336c.224-.096.475-.149.752-.16.182-.011.336 0 .464.032.128.021.235.048.32.08a.97.97 0 01.256.144l-.4 1.344c-.213-.213-.506-.32-.88-.32-.874 0-1.509.432-1.904 1.296V123h-1.344v-7.728h1.088l.256 1.312zm6.562 5.52c.629 0 1.077-.112 1.343-.336.267-.235.4-.507.4-.816a.878.878 0 00-.144-.512 1.325 1.325 0 00-.383-.384 2.15 2.15 0 00-.56-.288 8.854 8.854 0 00-.688-.24 8.343 8.343 0 01-.96-.352 3.1 3.1 0 01-.752-.464 2.019 2.019 0 01-.48-.64 2.318 2.318 0 01-.16-.896c0-.651.245-1.157.735-1.52.502-.363 1.195-.544 2.08-.544.438 0 .86.043 1.264.128.416.075.785.197 1.105.368l-.305 1.008a4.4 4.4 0 00-.911-.32 4.04 4.04 0 00-1.04-.128c-.576 0-.993.096-1.249.288-.256.192-.384.432-.384.72 0 .341.134.597.4.768.267.171.63.331 1.089.48.437.139.82.288 1.151.448.331.149.603.325.816.528.225.192.39.416.497.672.117.256.175.555.175.896 0 .661-.24 1.195-.72 1.6-.469.395-1.22.592-2.256.592a7.21 7.21 0 01-1.407-.128 3.337 3.337 0 01-1.072-.368l.303-1.008c.289.139.614.251.977.336.362.075.74.112 1.136.112z" fill="#000"/><circle cx="44" cy="46" r="43" stroke="#000" stroke-width="2"/><path fill-rule="evenodd" clip-rule="evenodd" d="M38.502 40.632c1.642.063 3.164.834 4.478 2.145-.464.44-.908.94-1.33 1.496-1.06-1.086-2.18-1.602-3.224-1.642-1.69-.065-3.673 1.099-5.412 3.93-.643 1.047-1.215 2.27-1.687 3.633a54.483 54.483 0 00-1.76-1.02c1.908-5.234 5.255-8.683 8.935-8.542z" fill="#000"/><path fill-rule="evenodd" clip-rule="evenodd" d="M56.52 50.885c-1.378-5.929-4.607-10.102-8.522-10.253-4.797-.184-9.029 5.73-10.243 13.75.637.435 1.257.861 1.847 1.268.422-3.63 1.493-6.786 2.907-9.089 1.74-2.831 3.723-3.995 5.412-3.93 1.69.065 3.578 1.377 5.095 4.334.717 1.399 1.297 3.077 1.684 4.954a40 40 0 011.82-1.034z" fill="#000"/><path fill-rule="evenodd" clip-rule="evenodd" d="M20.336 59.332l.077.054c.621.434 1.306.913 2.05 1.42a20.088 20.088 0 01-.146-2.605c.04-3.926 1.258-7.07 3.11-8.705.328.079.818.255 1.478.56 1.395.645 3.187 1.695 5.126 2.929 1.925 1.224 3.93 2.588 5.739 3.832l1.143.788h.001c1.184.817 2.255 1.555 3.091 2.108.145.196.287.392.425.588.482-.333 1.033-.722 1.636-1.15a36.094 36.094 0 00-.669-.917c-.847-.551-2.003-1.349-3.33-2.263-5.482-3.78-13.882-9.572-15.503-8.351-2.973 2.24-4.44 6.784-4.228 11.712zm4.811-9.88a.145.145 0 01.046.002.162.162 0 01-.046-.002z" fill="#000"/><path fill-rule="evenodd" clip-rule="evenodd" d="M25.796 77.763c5.748 3.118 11.605 4.215 15.35 3.205a9.122 9.122 0 01-2.045-1.673c-.471.038-.99.049-1.559.026-3.04-.12-6.9-1.205-10.792-3.316-3.544-1.922-6.115-5.6-7.535-9.413-.703-1.887-1.094-3.73-1.19-5.287a11.146 11.146 0 01-.017-1.156l.082.056c.345.238.73.508 1.15.801 1.052.736 2.322 1.624 3.729 2.548 3.712 2.44 8.622 5.3 14.179 7.03.124-.634.29-1.282.498-1.939-7.254-2.28-13.44-6.606-17.233-9.26-1.9-1.328-3.2-2.237-3.731-2.258-2.19 4.038.91 16.186 9.114 20.636zm-9.504-18.687z" fill="#000"/><path d="M42.553 61.43c-2.737 3.788-4.326 7.51-4.62 10.7-.293 3.185.697 5.81 3.135 7.588 2.439 1.779 5.747 2.05 9.224.876 3.474-1.173 7.026-3.769 9.782-7.546 2.717-3.725 3.96-8.452 3.85-12.732-.11-4.287-1.56-7.896-3.948-9.674-.038-.003-.169-.01-.45.053-.433.099-1.02.322-1.748.673-1.447.696-3.268 1.804-5.197 3.073-1.92 1.264-3.917 2.667-5.708 3.94l-1.142.812c-1.24.884-2.343 1.67-3.178 2.236z" stroke="#000" stroke-width="2"/><path fill-rule="evenodd" clip-rule="evenodd" d="M39.262 76.468c.107.753.355 1.546.722 2.367 1.873 4.194 10.301 4.507 18.823.7 8.522-3.809 12.545-15.683 10.671-19.877-.532-.02-1.897.786-3.894 1.966l-1.099.648c-.184.916-.425 1.83-.726 2.728a186.035 186.035 0 002.87-1.67c.442-.261.846-.5 1.21-.71l.085-.05a11.25 11.25 0 01-.105 1.15c-.216 1.546-.747 3.353-1.593 5.181-1.708 3.692-4.554 7.163-8.235 8.807-4.043 1.806-7.975 2.591-11.014 2.478-2.73-.1-4.243-.874-4.906-1.734a9.206 9.206 0 01-2.809-1.984zM69.718 61.63z" fill="#000"/><path d="M30.226 12.184l.361-.65c.683.738 1.325 1.417 1.943 2.116.109.123.19.349.158.502-.105.518.186.765.56 1.005 1.255.807 2.502 1.63 3.755 2.438a.746.746 0 00.361.121c1.227.036 2.453.06 3.776.09-.19-.564-.28-1.204-.595-1.7-.958-1.506-.37-3.425 1.313-4 .048-.016.093-.046.114-.057-.015-.3-.102-.609-.029-.87.217-.77.481-.85 1.183-.416.409-.217.803-.357 1.302-.06.225.136.653-.027.976-.105.554-.134.659-.104.725.454.039.322-.02.657-.038 1.041.74.333 1.33.896 1.634 1.727.3.818.265 1.591-.305 2.297-.364.45-.435.973-.406 1.548 1.302 0 2.553.045 3.798-.015.9-.042 1.737-.38 2.417-.993a78.262 78.262 0 002.34-2.219.927.927 0 00.264-.53c.107-1.127.757-1.978 1.426-2.957l.436.798c.186-.233.333-.454.517-.638.291-.29.632-.352 1-.125.341.21.495.51.33.95-.228.609-.475 1.233-.84 1.763a7.678 7.678 0 01-1.436 1.55c-.424.348-.74.735-.951 1.219-.595 1.365-1.604 2.318-2.933 2.938-.786.368-1.534.768-2.174 1.377-.413.391-.922.682-1.423 1.043.166.916.473 1.86-.006 2.824-.327-.118-.613-.258-.913-.314-.34-.084-.447.11-.443.189.193.028.485.214.596.294.38.272.564.447.895.768.955.928.982 2.114.519 3.373.16.049.299.08.43.132 1.66.668 2.95 1.66 3.272 3.574.12.71-.127 1.312-.456 1.862-.344.577-.801 1.049-1.512 1.29-.787.267-1.507.726-2.26 1.092a7.43 7.43 0 01-.797.324c-.21.072-.516.043-.631.182-.227.273-.514.649-.484.953.078.809-.027 1.715.685 2.336a4.1 4.1 0 00.914.57c.253.12.492.229.48.541-.01.307-.237.483-.509.518-1.18.15-2.364.234-3.397-.524-.405-.297-.755-.681-.715-1.241.043-.591-.219-1.056-.515-1.53-.219-.351-.43-.727-.542-1.12-.257-.909.237-1.554 1.184-1.598.232-.01.466.048.706.075.297-.505.387-1.086.313-2.153-.782-.012-1.536-.168-2.239.485-.715.665-1.168.574-1.938-.047-.25-.202-.555-.336-.871-.522-.36.578-.72 1.035-.936 1.553-.111.267.032.64.06.966.19.024.292.042.395.05 1.108.076 1.417.437 1.369 1.538-.012.292-.113.489-.34.657-.676.503-1.09 1.184-1.31 1.992-.125.452-.44.738-.895.772-.754.056-1.513.076-2.268.055-.18-.005-.42-.205-.506-.378-.047-.093.137-.361.278-.477a3.953 3.953 0 001.05-1.352c.731-1.49.44-2.684-.934-3.605a24.673 24.673 0 00-1.604-.991 5.078 5.078 0 01-1.975-1.976c-.663-1.183-.279-2.803.856-3.546.523-.343 1.076-.643 1.677-.998-.03-.754.083-1.512.51-2.21.376-.612.598-1.23 1.264-1.561.124-.069.234-.112.382-.187.075-.039.401-.142.376-.184-.074-.122-.316-.286-.553-.182-.325.13-.736.303-1.067.625.065-.885.212-1.535.273-2.377-.342-.27-.731-.573-1.118-.88-1.068-.844-2.213-1.61-3.176-2.562-.712-.705-1.21-1.636-1.753-2.497a4.53 4.53 0 00-1.038-1.156c-.86-.681-1.77-1.33-2.26-2.365-.161-.342-.487-.71-.183-1.085.326-.4.77-.199 1.159-.048.317.122.619.283.942.434z" fill="#000"/></svg>