<svg width="496" height="88" fill="none" xmlns="http://www.w3.org/2000/svg"><path d="M136.938 34.504c2.053 0 3.826.355 5.32 1.064 1.53.672 2.8 1.643 3.808 2.912 1.008 1.232 1.754 2.707 2.24 4.424.522 1.68.784 3.528.784 5.544 0 2.016-.262 3.883-.784 5.6-.486 1.68-1.232 3.155-2.24 4.424-1.008 1.232-2.278 2.203-3.808 2.912-1.494.672-3.267 1.008-5.32 1.008-2.054 0-3.846-.336-5.376-1.008-1.494-.71-2.744-1.68-3.752-2.912-1.008-1.27-1.774-2.744-2.296-4.424-.486-1.717-.728-3.584-.728-5.6 0-2.016.242-3.864.728-5.544.522-1.717 1.288-3.192 2.296-4.424a9.911 9.911 0 013.752-2.912c1.53-.71 3.322-1.064 5.376-1.064zm0 25.76c1.68 0 3.117-.28 4.312-.84 1.232-.597 2.221-1.419 2.968-2.464.784-1.045 1.362-2.296 1.736-3.752.373-1.456.56-3.043.56-4.76 0-1.717-.187-3.304-.56-4.76-.374-1.456-.952-2.707-1.736-3.752-.747-1.045-1.736-1.848-2.968-2.408-1.195-.597-2.632-.896-4.312-.896-1.68 0-3.136.299-4.368.896a7.777 7.777 0 00-2.968 2.408c-.747 1.045-1.307 2.296-1.68 3.752-.374 1.456-.56 3.043-.56 4.76 0 1.717.186 3.304.56 4.76.373 1.456.933 2.707 1.68 3.752a8.282 8.282 0 002.968 2.464c1.232.56 2.688.84 4.368.84zm26.111 0c2.389 0 4.144-.448 5.264-1.344 1.157-.896 1.736-2.128 1.736-3.696 0-.896-.187-1.661-.56-2.296-.373-.635-.896-1.195-1.568-1.68-.672-.485-1.475-.896-2.408-1.232a64.876 64.876 0 00-2.912-1.008 30.686 30.686 0 01-3.136-1.12 11.585 11.585 0 01-2.464-1.568 7.296 7.296 0 01-1.68-2.184c-.411-.821-.616-1.81-.616-2.968 0-1.12.224-2.09.672-2.912a5.974 5.974 0 011.848-2.128c.821-.56 1.773-.97 2.856-1.232a14.767 14.767 0 013.472-.392c1.605 0 3.08.168 4.424.504 1.344.336 2.539.728 3.584 1.176l-.672 2.072c-.971-.448-2.091-.821-3.36-1.12a17.304 17.304 0 00-3.976-.448c-2.016 0-3.584.355-4.704 1.064-1.12.71-1.68 1.773-1.68 3.192 0 1.643.597 2.912 1.792 3.808 1.232.859 2.744 1.53 4.536 2.016 2.949.859 5.189 1.923 6.72 3.192 1.531 1.27 2.296 3.024 2.296 5.264s-.784 4.013-2.352 5.32c-1.568 1.27-3.939 1.904-7.112 1.904-1.568 0-3.099-.168-4.592-.504-1.493-.373-2.725-.784-3.696-1.232l.672-2.016c.896.41 2.035.784 3.416 1.12a19.81 19.81 0 004.2.448zm35.777-25.312h2.576V62h-1.904l-.672-5.32c-.336.672-.821 1.344-1.456 2.016a12.312 12.312 0 01-2.24 1.848c-.821.56-1.773 1.027-2.856 1.4a10.915 10.915 0 01-3.36.504c-2.912 0-5.152-.877-6.72-2.632-1.531-1.755-2.296-4.256-2.296-7.504v-17.36h2.576v17.36c0 2.501.523 4.443 1.568 5.824 1.083 1.344 2.781 2.016 5.096 2.016a8.806 8.806 0 003.08-.56 12.63 12.63 0 002.744-1.4 11.65 11.65 0 002.24-2.016 11.269 11.269 0 001.624-2.296V34.952zM213.156 62h-2.576V34.952h1.904l.672 5.32c.411-.672.934-1.344 1.568-2.016a12.944 12.944 0 012.128-1.904 11.693 11.693 0 012.632-1.344 8.7 8.7 0 012.968-.504c2.016 0 3.547.56 4.592 1.68 1.083 1.083 1.811 2.576 2.184 4.48.971-1.717 2.296-3.173 3.976-4.368 1.718-1.195 3.584-1.792 5.6-1.792 2.502 0 4.294.859 5.376 2.576 1.12 1.717 1.68 4.013 1.68 6.888V62h-2.576V43.968c0-2.203-.317-3.939-.952-5.208-.634-1.307-1.922-1.96-3.864-1.96-1.717 0-3.378.579-4.984 1.736-1.605 1.12-2.949 2.613-4.032 4.48v.504c.038.112.056.261.056.448V62h-2.576V43.968c0-2.203-.317-3.939-.952-5.208-.634-1.307-1.922-1.96-3.864-1.96-.933 0-1.829.168-2.688.504-.858.336-1.68.803-2.464 1.4a13.446 13.446 0 00-2.128 2.016 17.032 17.032 0 00-1.68 2.352V62zm52.024-27.496c2.053 0 3.827.355 5.32 1.064 1.531.672 2.8 1.643 3.808 2.912 1.008 1.232 1.755 2.707 2.24 4.424.523 1.68.784 3.528.784 5.544 0 2.016-.261 3.883-.784 5.6-.485 1.68-1.232 3.155-2.24 4.424-1.008 1.232-2.277 2.203-3.808 2.912-1.493.672-3.267 1.008-5.32 1.008-2.053 0-3.845-.336-5.376-1.008-1.493-.71-2.744-1.68-3.752-2.912-1.008-1.27-1.773-2.744-2.296-4.424-.485-1.717-.728-3.584-.728-5.6 0-2.016.243-3.864.728-5.544.523-1.717 1.288-3.192 2.296-4.424a9.92 9.92 0 013.752-2.912c1.531-.71 3.323-1.064 5.376-1.064zm0 25.76c1.68 0 3.117-.28 4.312-.84 1.232-.597 2.221-1.419 2.968-2.464.784-1.045 1.363-2.296 1.736-3.752s.56-3.043.56-4.76c0-1.717-.187-3.304-.56-4.76-.373-1.456-.952-2.707-1.736-3.752-.747-1.045-1.736-1.848-2.968-2.408-1.195-.597-2.632-.896-4.312-.896-1.68 0-3.136.299-4.368.896a7.777 7.777 0 00-2.968 2.408c-.747 1.045-1.307 2.296-1.68 3.752s-.56 3.043-.56 4.76c0 1.717.187 3.304.56 4.76.373 1.456.933 2.707 1.68 3.752a8.282 8.282 0 002.968 2.464c1.232.56 2.688.84 4.368.84zm38.263-25.312h2.576V62h-1.904l-.672-5.32c-.336.672-.821 1.344-1.456 2.016a12.312 12.312 0 01-2.24 1.848c-.821.56-1.773 1.027-2.856 1.4a10.915 10.915 0 01-3.36.504c-2.912 0-5.152-.877-6.72-2.632-1.531-1.755-2.296-4.256-2.296-7.504v-17.36h2.576v17.36c0 2.501.523 4.443 1.568 5.824 1.083 1.344 2.781 2.016 5.096 2.016a8.806 8.806 0 003.08-.56 12.63 12.63 0 002.744-1.4 11.65 11.65 0 002.24-2.016 11.269 11.269 0 001.624-2.296V34.952zm31.09 0h8.344v2.128h-8.344V62h-2.52V37.08h-4.704v-2.128h4.704v-.56c0-1.419.205-2.763.616-4.032.41-1.307 1.045-2.445 1.904-3.416.858-.97 1.96-1.736 3.304-2.296 1.381-.56 3.005-.84 4.872-.84 1.642 0 3.266.15 4.872.448 1.642.261 3.08.597 4.312 1.008V62h-2.576V26.72c-.71-.187-1.643-.355-2.8-.504-1.12-.15-2.24-.224-3.36-.224-1.68 0-3.08.224-4.2.672-1.12.448-2.016 1.045-2.688 1.792-.635.747-1.083 1.643-1.344 2.688a13.545 13.545 0 00-.392 3.304v.504zm36.959-.448c2.054 0 3.827.355 5.32 1.064 1.531.672 2.8 1.643 3.808 2.912 1.008 1.232 1.755 2.707 2.24 4.424.523 1.68.784 3.528.784 5.544 0 2.016-.261 3.883-.784 5.6-.485 1.68-1.232 3.155-2.24 4.424-1.008 1.232-2.277 2.203-3.808 2.912-1.493.672-3.266 1.008-5.32 1.008-2.053 0-3.845-.336-5.376-1.008-1.493-.71-2.744-1.68-3.752-2.912-1.008-1.27-1.773-2.744-2.296-4.424-.485-1.717-.728-3.584-.728-5.6 0-2.016.243-3.864.728-5.544.523-1.717 1.288-3.192 2.296-4.424a9.92 9.92 0 013.752-2.912c1.531-.71 3.323-1.064 5.376-1.064zm0 25.76c1.68 0 3.118-.28 4.312-.84 1.232-.597 2.222-1.419 2.968-2.464.784-1.045 1.363-2.296 1.736-3.752.374-1.456.56-3.043.56-4.76 0-1.717-.186-3.304-.56-4.76-.373-1.456-.952-2.707-1.736-3.752-.746-1.045-1.736-1.848-2.968-2.408-1.194-.597-2.632-.896-4.312-.896-1.68 0-3.136.299-4.368.896a7.785 7.785 0 00-2.968 2.408c-.746 1.045-1.306 2.296-1.68 3.752-.373 1.456-.56 3.043-.56 4.76 0 1.717.187 3.304.56 4.76.374 1.456.934 2.707 1.68 3.752a8.29 8.29 0 002.968 2.464c1.232.56 2.688.84 4.368.84zm34.904-25.312l5.376 16.8a47.35 47.35 0 011.064 3.752c.336 1.344.616 2.65.84 3.92h.112c.037-.485.093-1.064.168-1.736.112-.672.224-1.4.336-2.184l.448-2.352c.186-.821.373-1.624.56-2.408l4.032-15.792h2.408L414.852 62h-2.072l-6.608-20.496c-.224-.747-.448-1.512-.672-2.296a40.133 40.133 0 01-.56-2.296h-.112a40.78 40.78 0 01-.56 2.296c-.224.784-.448 1.55-.672 2.296L396.988 62h-2.072l-6.888-27.048h2.408l4.032 15.792c.186.784.354 1.587.504 2.408a26.3 26.3 0 01.448 2.352c.149.784.261 1.512.336 2.184.074.672.149 1.25.224 1.736h.112c.224-1.27.504-2.576.84-3.92.336-1.381.69-2.632 1.064-3.752l5.376-16.8h3.024zm22.238 14.728c.149 3.136 1.064 5.693 2.744 7.672 1.68 1.941 4.218 2.912 7.616 2.912 1.418 0 2.725-.187 3.92-.56 1.232-.373 2.314-.821 3.248-1.344l.672 1.96c-.934.56-2.091 1.045-3.472 1.456-1.344.41-2.838.616-4.48.616-2.128 0-3.995-.336-5.6-1.008-1.606-.71-2.95-1.68-4.032-2.912-1.046-1.27-1.83-2.744-2.352-4.424-.523-1.717-.784-3.584-.784-5.6 0-2.016.242-3.864.728-5.544.522-1.717 1.288-3.192 2.296-4.424a9.911 9.911 0 013.752-2.912c1.53-.71 3.304-1.064 5.32-1.064 3.285 0 5.786.933 7.504 2.8 1.717 1.867 2.576 4.499 2.576 7.896 0 .71-.075 1.493-.224 2.352-.112.859-.262 1.568-.448 2.128h-18.984zm9.576-13.104c-1.68 0-3.118.28-4.312.84-1.195.56-2.166 1.325-2.912 2.296-.747.97-1.307 2.147-1.68 3.528-.374 1.381-.579 2.875-.616 4.48h17.024c.074-.336.13-.728.168-1.176.037-.485.056-.933.056-1.344 0-2.95-.635-5.115-1.904-6.496-1.232-1.419-3.174-2.128-5.824-2.128zM458.156 62h-2.576V34.952h1.904l.672 5.32a15.12 15.12 0 011.512-2.184 11.452 11.452 0 011.96-1.848 9.104 9.104 0 012.296-1.232 6.741 6.741 0 012.576-.504c.784 0 1.475.093 2.072.28.635.15 1.158.336 1.568.56l-.672 2.464a5.586 5.586 0 00-1.344-.56c-.485-.15-1.12-.224-1.904-.224-1.792 0-3.341.579-4.648 1.736-1.306 1.157-2.445 2.595-3.416 4.312V62zm24.377-1.736c2.39 0 4.144-.448 5.264-1.344 1.158-.896 1.736-2.128 1.736-3.696 0-.896-.186-1.661-.56-2.296-.373-.635-.896-1.195-1.568-1.68-.672-.485-1.474-.896-2.408-1.232a64.442 64.442 0 00-2.912-1.008 30.686 30.686 0 01-3.136-1.12 11.61 11.61 0 01-2.464-1.568 7.296 7.296 0 01-1.68-2.184c-.41-.821-.616-1.81-.616-2.968 0-1.12.224-2.09.672-2.912a5.974 5.974 0 011.848-2.128c.822-.56 1.774-.97 2.856-1.232a14.767 14.767 0 013.472-.392c1.606 0 3.08.168 4.424.504 1.344.336 2.539.728 3.584 1.176l-.672 2.072c-.97-.448-2.09-.821-3.36-1.12a17.298 17.298 0 00-3.976-.448c-2.016 0-3.584.355-4.704 1.064-1.12.71-1.68 1.773-1.68 3.192 0 1.643.598 2.912 1.792 3.808 1.232.859 2.744 1.53 4.536 2.016 2.95.859 5.19 1.923 6.72 3.192 1.531 1.27 2.296 3.024 2.296 5.264s-.784 4.013-2.352 5.32c-1.568 1.27-3.938 1.904-7.112 1.904-1.568 0-3.098-.168-4.592-.504-1.493-.373-2.725-.784-3.696-1.232l.672-2.016c.896.41 2.035.784 3.416 1.12 1.382.299 2.782.448 4.2.448z" fill="#000"/><circle cx="46" cy="44" r="43" stroke="#000" stroke-width="2"/><path fill-rule="evenodd" clip-rule="evenodd" d="M40.502 38.632c1.642.063 3.164.834 4.478 2.145-.464.44-.908.94-1.33 1.496-1.06-1.086-2.18-1.602-3.224-1.642-1.69-.065-3.673 1.099-5.412 3.93-.643 1.047-1.215 2.27-1.687 3.633a54.483 54.483 0 00-1.76-1.02c1.908-5.234 5.255-8.683 8.935-8.542z" fill="#000"/><path fill-rule="evenodd" clip-rule="evenodd" d="M58.52 48.885c-1.378-5.929-4.607-10.102-8.522-10.253-4.797-.184-9.029 5.73-10.243 13.75.637.435 1.257.861 1.847 1.268.422-3.63 1.493-6.786 2.907-9.089 1.74-2.831 3.723-3.995 5.412-3.93 1.69.065 3.578 1.377 5.095 4.334.717 1.399 1.297 3.077 1.684 4.954a40 40 0 011.82-1.034z" fill="#000"/><path fill-rule="evenodd" clip-rule="evenodd" d="M22.336 57.332l.077.054c.621.434 1.306.913 2.05 1.42a20.088 20.088 0 01-.146-2.605c.04-3.926 1.258-7.07 3.11-8.705.328.079.818.255 1.478.56 1.395.645 3.187 1.695 5.126 2.929 1.925 1.224 3.93 2.588 5.739 3.832l1.143.788h.001c1.184.817 2.255 1.555 3.091 2.108.145.196.287.392.425.588.482-.333 1.033-.722 1.636-1.15a36.094 36.094 0 00-.669-.917c-.847-.551-2.003-1.349-3.33-2.263-5.482-3.78-13.882-9.572-15.503-8.351-2.973 2.24-4.44 6.784-4.228 11.712zm4.811-9.88a.145.145 0 01.046.002.162.162 0 01-.046-.002z" fill="#000"/><path fill-rule="evenodd" clip-rule="evenodd" d="M27.796 75.763c5.748 3.118 11.605 4.215 15.35 3.205a9.122 9.122 0 01-2.045-1.673c-.471.038-.99.049-1.559.026-3.04-.12-6.9-1.205-10.792-3.316-3.544-1.922-6.115-5.6-7.535-9.413-.703-1.887-1.094-3.73-1.19-5.287a11.146 11.146 0 01-.017-1.156l.082.056c.345.238.73.508 1.15.801 1.052.736 2.322 1.624 3.729 2.548 3.712 2.44 8.622 5.3 14.179 7.03.124-.634.29-1.282.498-1.939-7.254-2.28-13.44-6.606-17.233-9.26-1.9-1.328-3.2-2.237-3.731-2.258-2.19 4.038.91 16.186 9.114 20.636zm-9.504-18.687z" fill="#000"/><path d="M44.553 59.43c-2.737 3.788-4.326 7.51-4.62 10.7-.293 3.185.697 5.81 3.135 7.588 2.439 1.779 5.747 2.05 9.224.876 3.474-1.173 7.026-3.769 9.782-7.546 2.717-3.725 3.96-8.452 3.85-12.732-.11-4.287-1.56-7.896-3.948-9.674-.038-.003-.169-.01-.45.053-.433.099-1.02.322-1.748.673-1.447.696-3.268 1.804-5.197 3.073-1.92 1.264-3.917 2.667-5.708 3.94l-1.142.812c-1.24.884-2.343 1.67-3.178 2.236z" stroke="#000" stroke-width="2"/><path fill-rule="evenodd" clip-rule="evenodd" d="M41.262 74.468c.107.753.355 1.546.722 2.367 1.873 4.194 10.301 4.507 18.823.7 8.522-3.809 12.545-15.683 10.671-19.877-.532-.02-1.897.786-3.894 1.966l-1.099.648c-.184.916-.425 1.83-.726 2.728a186.035 186.035 0 002.87-1.67c.442-.261.846-.5 1.21-.71l.085-.05a11.25 11.25 0 01-.105 1.15c-.216 1.546-.747 3.353-1.593 5.181-1.708 3.692-4.554 7.163-8.235 8.807-4.043 1.806-7.975 2.591-11.014 2.478-2.73-.1-4.243-.874-4.906-1.734a9.206 9.206 0 01-2.809-1.984zM71.718 59.63z" fill="#000"/><path d="M32.226 10.184l.361-.65c.683.738 1.325 1.417 1.943 2.116.109.123.19.349.158.502-.105.518.186.765.56 1.005 1.255.807 2.502 1.63 3.755 2.438a.746.746 0 00.361.121c1.227.036 2.453.06 3.776.09-.19-.564-.28-1.204-.595-1.7-.958-1.506-.37-3.425 1.313-4 .048-.016.093-.046.114-.057-.015-.3-.102-.609-.029-.87.217-.77.481-.85 1.183-.416.409-.217.803-.357 1.302-.06.225.136.653-.027.976-.105.554-.134.659-.104.725.455.039.321-.02.656-.038 1.04.74.333 1.33.896 1.634 1.727.3.818.265 1.591-.305 2.297-.364.45-.435.973-.406 1.548 1.302 0 2.553.045 3.798-.015.9-.042 1.737-.38 2.417-.993a78.262 78.262 0 002.34-2.219.927.927 0 00.264-.53c.107-1.127.757-1.978 1.426-2.958l.436.799c.186-.233.333-.454.517-.638.291-.29.632-.352 1-.125.341.21.495.51.33.95-.228.609-.475 1.233-.84 1.763a7.678 7.678 0 01-1.436 1.55c-.424.348-.74.735-.951 1.218-.595 1.366-1.604 2.319-2.933 2.94-.786.367-1.534.767-2.174 1.376-.413.391-.922.682-1.423 1.043.166.916.473 1.86-.006 2.824-.327-.118-.613-.258-.913-.314-.34-.084-.447.11-.443.189.193.028.485.214.596.294.38.272.564.447.895.768.955.928.982 2.114.519 3.373.16.049.299.08.43.132 1.66.668 2.95 1.66 3.272 3.574.12.71-.127 1.312-.456 1.862-.344.577-.801 1.049-1.512 1.29-.787.267-1.507.726-2.26 1.092a7.43 7.43 0 01-.797.324c-.21.072-.516.043-.631.182-.227.273-.514.649-.484.953.078.809-.027 1.715.685 2.336a4.1 4.1 0 00.914.57c.253.12.492.229.48.541-.01.307-.237.483-.509.518-1.18.15-2.364.234-3.397-.524-.405-.297-.755-.681-.715-1.241.043-.591-.219-1.056-.515-1.53-.219-.351-.43-.727-.542-1.12-.257-.909.237-1.554 1.184-1.598.232-.01.466.048.706.075.297-.505.387-1.086.313-2.153-.782-.012-1.536-.168-2.239.485-.715.665-1.168.574-1.938-.047-.25-.202-.555-.336-.871-.522-.36.578-.72 1.035-.936 1.553-.111.267.032.64.06.966.19.024.292.042.395.05 1.108.076 1.417.437 1.369 1.538-.012.292-.113.489-.34.657-.676.503-1.09 1.184-1.31 1.992-.125.452-.44.738-.895.772-.754.056-1.513.076-2.268.055-.18-.005-.42-.205-.506-.378-.047-.093.137-.361.278-.477a3.953 3.953 0 001.05-1.352c.731-1.49.44-2.684-.934-3.605a24.673 24.673 0 00-1.604-.991 5.078 5.078 0 01-1.975-1.976c-.663-1.183-.279-2.803.856-3.546.523-.343 1.076-.643 1.677-.998-.03-.754.083-1.512.51-2.21.376-.612.598-1.23 1.264-1.561.124-.069.234-.112.382-.187.075-.039.401-.142.376-.184-.074-.122-.316-.286-.553-.182-.325.13-.736.303-1.067.625.065-.885.212-1.535.273-2.377-.342-.27-.731-.573-1.118-.88-1.068-.844-2.213-1.61-3.176-2.562-.712-.705-1.21-1.636-1.753-2.497a4.53 4.53 0 00-1.038-1.156c-.86-.681-1.77-1.33-2.26-2.365-.161-.342-.487-.71-.183-1.085.326-.4.77-.199 1.159-.048.317.122.619.283.942.434z" fill="#000"/></svg>