<svg width="200" height="200" fill="none" xmlns="http://www.w3.org/2000/svg"><g clip-path="url(#clip0)"><path d="M21.086 115.504c2.053 0 3.827.355 5.32 1.064 1.53.672 2.8 1.643 3.808 2.912 1.008 1.232 1.755 2.707 2.24 4.424.523 1.68.784 3.528.784 5.544 0 2.016-.261 3.883-.784 5.6-.485 1.68-1.232 3.155-2.24 4.424-1.008 1.232-2.277 2.203-3.808 2.912-1.493.672-3.267 1.008-5.32 1.008-2.053 0-3.845-.336-5.376-1.008-1.493-.709-2.744-1.68-3.752-2.912-1.008-1.269-1.773-2.744-2.296-4.424-.485-1.717-.728-3.584-.728-5.6 0-2.016.243-3.864.728-5.544.523-1.717 1.288-3.192 2.296-4.424a9.92 9.92 0 013.752-2.912c1.53-.709 3.323-1.064 5.376-1.064zm0 25.76c1.68 0 3.117-.28 4.312-.84 1.232-.597 2.221-1.419 2.968-2.464.784-1.045 1.363-2.296 1.736-3.752s.56-3.043.56-4.76c0-1.717-.187-3.304-.56-4.76-.373-1.456-.952-2.707-1.736-3.752-.747-1.045-1.736-1.848-2.968-2.408-1.195-.597-2.632-.896-4.312-.896-1.68 0-3.136.299-4.368.896a7.782 7.782 0 00-2.968 2.408c-.747 1.045-1.307 2.296-1.68 3.752s-.56 3.043-.56 4.76c0 1.717.187 3.304.56 4.76.373 1.456.933 2.707 1.68 3.752a8.285 8.285 0 002.968 2.464c1.232.56 2.688.84 4.368.84zm26.111 0c2.39 0 4.144-.448 5.264-1.344 1.158-.896 1.736-2.128 1.736-3.696 0-.896-.186-1.661-.56-2.296-.373-.635-.896-1.195-1.568-1.68-.672-.485-1.474-.896-2.408-1.232a64.745 64.745 0 00-2.912-1.008 30.589 30.589 0 01-3.136-1.12 11.597 11.597 0 01-2.464-1.568 7.294 7.294 0 01-1.68-2.184c-.41-.821-.616-1.811-.616-2.968 0-1.12.224-2.091.672-2.912a5.972 5.972 0 011.848-2.128c.822-.56 1.774-.971 2.856-1.232a14.781 14.781 0 013.472-.392c1.606 0 3.08.168 4.424.504 1.344.336 2.54.728 3.584 1.176l-.672 2.072c-.97-.448-2.09-.821-3.36-1.12a17.288 17.288 0 00-3.976-.448c-2.016 0-3.584.355-4.704 1.064-1.12.709-1.68 1.773-1.68 3.192 0 1.643.598 2.912 1.792 3.808 1.232.859 2.744 1.531 4.536 2.016 2.95.859 5.19 1.923 6.72 3.192 1.531 1.269 2.296 3.024 2.296 5.264s-.784 4.013-2.352 5.32c-1.568 1.269-3.938 1.904-7.112 1.904-1.568 0-3.098-.168-4.592-.504-1.493-.373-2.725-.784-3.696-1.232l.672-2.016c.896.411 2.035.784 3.416 1.12 1.382.299 2.782.448 4.2.448zm35.777-25.312h2.576V143h-1.904l-.672-5.32c-.336.672-.82 1.344-1.456 2.016a12.312 12.312 0 01-2.24 1.848c-.82.56-1.773 1.027-2.856 1.4a10.918 10.918 0 01-3.36.504c-2.912 0-5.152-.877-6.72-2.632-1.53-1.755-2.296-4.256-2.296-7.504v-17.36h2.576v17.36c0 2.501.523 4.443 1.568 5.824 1.083 1.344 2.782 2.016 5.096 2.016a8.812 8.812 0 003.08-.56 12.623 12.623 0 002.744-1.4 11.63 11.63 0 002.24-2.016 11.265 11.265 0 001.624-2.296v-18.928zM97.304 143H94.73v-27.048h1.904l.672 5.32c.41-.672.933-1.344 1.568-2.016a12.947 12.947 0 012.128-1.904 11.651 11.651 0 012.632-1.344 8.691 8.691 0 012.968-.504c2.016 0 3.546.56 4.592 1.68 1.082 1.083 1.81 2.576 2.184 4.48.97-1.717 2.296-3.173 3.976-4.368 1.717-1.195 3.584-1.792 5.6-1.792 2.501 0 4.293.859 5.376 2.576 1.12 1.717 1.68 4.013 1.68 6.888V143h-2.576v-18.032c0-2.203-.318-3.939-.952-5.208-.635-1.307-1.923-1.96-3.864-1.96-1.718 0-3.379.579-4.984 1.736-1.606 1.12-2.95 2.613-4.032 4.48v.504c.037.112.056.261.056.448V143h-2.576v-18.032c0-2.203-.318-3.939-.952-5.208-.635-1.307-1.923-1.96-3.864-1.96-.934 0-1.83.168-2.688.504-.859.336-1.68.803-2.464 1.4a13.405 13.405 0 00-2.128 2.016 16.967 16.967 0 00-1.68 2.352V143zm52.024-27.496c2.054 0 3.827.355 5.32 1.064 1.531.672 2.8 1.643 3.808 2.912 1.008 1.232 1.755 2.707 2.24 4.424.523 1.68.784 3.528.784 5.544 0 2.016-.261 3.883-.784 5.6-.485 1.68-1.232 3.155-2.24 4.424-1.008 1.232-2.277 2.203-3.808 2.912-1.493.672-3.266 1.008-5.32 1.008-2.053 0-3.845-.336-5.376-1.008-1.493-.709-2.744-1.68-3.752-2.912-1.008-1.269-1.773-2.744-2.296-4.424-.485-1.717-.728-3.584-.728-5.6 0-2.016.243-3.864.728-5.544.523-1.717 1.288-3.192 2.296-4.424a9.922 9.922 0 013.752-2.912c1.531-.709 3.323-1.064 5.376-1.064zm0 25.76c1.68 0 3.118-.28 4.312-.84 1.232-.597 2.222-1.419 2.968-2.464.784-1.045 1.363-2.296 1.736-3.752.374-1.456.56-3.043.56-4.76 0-1.717-.186-3.304-.56-4.76-.373-1.456-.952-2.707-1.736-3.752-.746-1.045-1.736-1.848-2.968-2.408-1.194-.597-2.632-.896-4.312-.896-1.68 0-3.136.299-4.368.896a7.788 7.788 0 00-2.968 2.408c-.746 1.045-1.306 2.296-1.68 3.752-.373 1.456-.56 3.043-.56 4.76 0 1.717.187 3.304.56 4.76.374 1.456.934 2.707 1.68 3.752a8.29 8.29 0 002.968 2.464c1.232.56 2.688.84 4.368.84zm38.264-25.312h2.576V143h-1.904l-.672-5.32c-.336.672-.822 1.344-1.456 2.016a12.346 12.346 0 01-2.24 1.848c-.822.56-1.774 1.027-2.856 1.4a10.924 10.924 0 01-3.36.504c-2.912 0-5.152-.877-6.72-2.632-1.531-1.755-2.296-4.256-2.296-7.504v-17.36h2.576v17.36c0 2.501.522 4.443 1.568 5.824 1.082 1.344 2.781 2.016 5.096 2.016a8.813 8.813 0 003.08-.56 12.64 12.64 0 002.744-1.4 11.66 11.66 0 002.24-2.016 11.277 11.277 0 001.624-2.296v-18.928zm-163.16 55h8.343v2.128h-8.344V198h-2.52v-24.92h-4.704v-2.128h4.704v-.56c0-1.419.206-2.763.616-4.032a9.29 9.29 0 011.904-3.416c.859-.971 1.96-1.736 3.304-2.296 1.382-.56 3.006-.84 4.872-.84 1.643 0 3.267.149 4.872.448 1.643.261 3.08.597 4.312 1.008V198h-2.576v-35.28c-.71-.187-1.642-.355-2.8-.504a25.453 25.453 0 00-3.36-.224c-1.68 0-3.08.224-4.2.672-1.12.448-2.016 1.045-2.688 1.792-.634.747-1.082 1.643-1.344 2.688a13.58 13.58 0 00-.392 3.304v.504zm36.959-.448c2.053 0 3.826.355 5.32 1.064 1.53.672 2.8 1.643 3.808 2.912 1.008 1.232 1.754 2.707 2.24 4.424.522 1.68.784 3.528.784 5.544 0 2.016-.262 3.883-.784 5.6-.486 1.68-1.232 3.155-2.24 4.424-1.008 1.232-2.278 2.203-3.808 2.912-1.494.672-3.267 1.008-5.32 1.008-2.054 0-3.846-.336-5.376-1.008-1.494-.709-2.744-1.68-3.752-2.912-1.008-1.269-1.774-2.744-2.296-4.424-.486-1.717-.728-3.584-.728-5.6 0-2.016.242-3.864.728-5.544.522-1.717 1.288-3.192 2.296-4.424a9.919 9.919 0 013.752-2.912c1.53-.709 3.322-1.064 5.376-1.064zm0 25.76c1.68 0 3.117-.28 4.312-.84 1.232-.597 2.221-1.419 2.968-2.464.784-1.045 1.362-2.296 1.736-3.752.373-1.456.56-3.043.56-4.76 0-1.717-.187-3.304-.56-4.76-.374-1.456-.952-2.707-1.736-3.752-.747-1.045-1.736-1.848-2.968-2.408-1.195-.597-2.632-.896-4.312-.896-1.68 0-3.136.299-4.368.896a7.782 7.782 0 00-2.968 2.408c-.747 1.045-1.307 2.296-1.68 3.752-.374 1.456-.56 3.043-.56 4.76 0 1.717.186 3.304.56 4.76.373 1.456.933 2.707 1.68 3.752a8.285 8.285 0 002.968 2.464c1.232.56 2.688.84 4.368.84zm34.903-25.312l5.376 16.8c.373 1.12.728 2.371 1.064 3.752.336 1.344.616 2.651.84 3.92h.112c.037-.485.093-1.064.168-1.736.112-.672.224-1.4.336-2.184l.448-2.352c.187-.821.373-1.624.56-2.408l4.032-15.792h2.408L104.75 198h-2.072l-6.608-20.496c-.224-.747-.448-1.512-.672-2.296a40.387 40.387 0 01-.56-2.296h-.112c-.15.709-.336 1.475-.56 2.296-.224.784-.448 1.549-.672 2.296L86.886 198h-2.072l-6.888-27.048h2.408l4.032 15.792c.187.784.355 1.587.504 2.408.187.784.336 1.568.448 2.352.15.784.261 1.512.336 2.184.075.672.15 1.251.224 1.736h.112c.224-1.269.504-2.576.84-3.92a47.26 47.26 0 011.064-3.752l5.376-16.8h3.024zm22.238 14.728c.15 3.136 1.064 5.693 2.744 7.672 1.68 1.941 4.219 2.912 7.616 2.912 1.419 0 2.726-.187 3.92-.56 1.232-.373 2.315-.821 3.248-1.344l.672 1.96c-.933.56-2.09 1.045-3.472 1.456-1.344.411-2.837.616-4.48.616-2.128 0-3.994-.336-5.6-1.008-1.605-.709-2.949-1.68-4.032-2.912-1.045-1.269-1.829-2.744-2.352-4.424-.522-1.717-.784-3.584-.784-5.6 0-2.016.243-3.864.728-5.544.523-1.717 1.288-3.192 2.296-4.424a9.922 9.922 0 013.752-2.912c1.531-.709 3.304-1.064 5.32-1.064 3.286 0 5.787.933 7.504 2.8 1.718 1.867 2.576 4.499 2.576 7.896 0 .709-.074 1.493-.224 2.352-.112.859-.261 1.568-.448 2.128h-18.984zm9.576-13.104c-1.68 0-3.117.28-4.312.84-1.194.56-2.165 1.325-2.912 2.296-.746.971-1.306 2.147-1.68 3.528-.373 1.381-.578 2.875-.616 4.48h17.024a8.77 8.77 0 00.168-1.176c.038-.485.056-.933.056-1.344 0-2.949-.634-5.115-1.904-6.496-1.232-1.419-3.173-2.128-5.824-2.128zM148.055 198h-2.576v-27.048h1.904l.672 5.32a15.12 15.12 0 011.512-2.184 11.402 11.402 0 011.96-1.848 9.07 9.07 0 012.296-1.232 6.738 6.738 0 012.576-.504c.784 0 1.474.093 2.072.28.634.149 1.157.336 1.568.56l-.672 2.464a5.608 5.608 0 00-1.344-.56c-.486-.149-1.12-.224-1.904-.224-1.792 0-3.342.579-4.648 1.736-1.307 1.157-2.446 2.595-3.416 4.312V198zm24.377-1.736c2.389 0 4.144-.448 5.264-1.344 1.157-.896 1.736-2.128 1.736-3.696 0-.896-.187-1.661-.56-2.296-.374-.635-.896-1.195-1.568-1.68-.672-.485-1.475-.896-2.408-1.232a64.876 64.876 0 00-2.912-1.008 30.53 30.53 0 01-3.136-1.12 11.572 11.572 0 01-2.464-1.568 7.271 7.271 0 01-1.68-2.184c-.411-.821-.616-1.811-.616-2.968 0-1.12.224-2.091.672-2.912a5.972 5.972 0 011.848-2.128c.821-.56 1.773-.971 2.856-1.232a14.777 14.777 0 013.472-.392c1.605 0 3.08.168 4.424.504 1.344.336 2.538.728 3.584 1.176l-.672 2.072c-.971-.448-2.091-.821-3.36-1.12a17.294 17.294 0 00-3.976-.448c-2.016 0-3.584.355-4.704 1.064-1.12.709-1.68 1.773-1.68 3.192 0 1.643.597 2.912 1.792 3.808 1.232.859 2.744 1.531 4.536 2.016 2.949.859 5.189 1.923 6.72 3.192 1.53 1.269 2.296 3.024 2.296 5.264s-.784 4.013-2.352 5.32c-1.568 1.269-3.939 1.904-7.112 1.904-1.568 0-3.099-.168-4.592-.504-1.494-.373-2.726-.784-3.696-1.232l.672-2.016c.896.411 2.034.784 3.416 1.12 1.381.299 2.781.448 4.2.448z" fill="#000"/><circle cx="101" cy="46" r="43" stroke="#000" stroke-width="2"/><path fill-rule="evenodd" clip-rule="evenodd" d="M95.502 40.632c1.642.063 3.164.834 4.478 2.145-.464.44-.908.94-1.33 1.496-1.06-1.086-2.18-1.602-3.224-1.642-1.69-.065-3.673 1.099-5.412 3.93-.643 1.047-1.215 2.27-1.687 3.633a54.483 54.483 0 00-1.76-1.02c1.908-5.234 5.256-8.683 8.936-8.542z" fill="#000"/><path fill-rule="evenodd" clip-rule="evenodd" d="M113.52 50.885c-1.378-5.929-4.607-10.102-8.522-10.253-4.797-.184-9.029 5.73-10.243 13.75.637.435 1.257.861 1.847 1.268.422-3.63 1.493-6.786 2.907-9.089 1.739-2.831 3.723-3.995 5.412-3.93 1.689.065 3.578 1.377 5.095 4.334.717 1.399 1.297 3.077 1.684 4.954a39.62 39.62 0 011.82-1.034z" fill="#000"/><path fill-rule="evenodd" clip-rule="evenodd" d="M77.336 59.332l.077.054c.621.434 1.306.913 2.05 1.42a20.088 20.088 0 01-.146-2.605c.04-3.926 1.258-7.07 3.11-8.705.328.079.818.255 1.478.56 1.395.645 3.187 1.695 5.126 2.929 1.925 1.224 3.93 2.588 5.739 3.832l1.143.788h.001c1.184.817 2.255 1.555 3.091 2.108.145.196.287.392.425.588.482-.333 1.033-.722 1.636-1.15a37.394 37.394 0 00-.669-.917c-.847-.551-2.003-1.349-3.33-2.263-5.482-3.78-13.882-9.572-15.503-8.351-2.973 2.24-4.44 6.784-4.228 11.712zm4.811-9.88a.145.145 0 01.046.002.162.162 0 01-.046-.002z" fill="#000"/><path fill-rule="evenodd" clip-rule="evenodd" d="M82.796 77.763c5.748 3.118 11.605 4.215 15.35 3.205a9.122 9.122 0 01-2.045-1.673c-.471.038-.99.049-1.559.026-3.04-.12-6.9-1.205-10.792-3.316-3.544-1.922-6.115-5.6-7.535-9.413-.703-1.887-1.094-3.73-1.19-5.287a11.146 11.146 0 01-.017-1.156l.082.056c.345.238.73.508 1.15.801 1.052.736 2.322 1.624 3.729 2.548 3.712 2.44 8.622 5.3 14.179 7.03.124-.634.29-1.282.498-1.939-7.254-2.28-13.44-6.606-17.233-9.26-1.9-1.328-3.2-2.237-3.731-2.258-2.19 4.038.91 16.186 9.114 20.636zm-9.504-18.687z" fill="#000"/><path d="M99.553 61.43c-2.737 3.788-4.326 7.51-4.62 10.7-.293 3.185.697 5.81 3.135 7.588 2.439 1.779 5.747 2.05 9.224.876 3.474-1.173 7.026-3.769 9.782-7.546 2.717-3.725 3.959-8.452 3.85-12.732-.11-4.287-1.56-7.896-3.948-9.674-.038-.003-.169-.01-.449.053-.433.099-1.021.322-1.749.673-1.447.696-3.268 1.804-5.197 3.073-1.921 1.264-3.917 2.667-5.708 3.94l-1.142.812a185.14 185.14 0 01-3.178 2.236z" stroke="#000" stroke-width="2"/><path fill-rule="evenodd" clip-rule="evenodd" d="M96.262 76.468c.107.753.355 1.546.722 2.367 1.874 4.194 10.301 4.507 18.823.7 8.522-3.809 12.545-15.683 10.671-19.877-.532-.02-1.897.786-3.894 1.966l-1.099.648c-.184.916-.425 1.83-.726 2.728 1.063-.603 2.032-1.175 2.871-1.67.441-.261.845-.5 1.208-.71l.086-.05a11.25 11.25 0 01-.105 1.15c-.216 1.546-.747 3.353-1.593 5.181-1.708 3.692-4.554 7.163-8.235 8.807-4.043 1.806-7.975 2.591-11.014 2.478-2.73-.1-4.243-.874-4.906-1.734a9.206 9.206 0 01-2.809-1.984zm30.456-14.837a.112.112 0 00.018-.005s-.006 0-.018.005z" fill="#000"/><path d="M87.226 12.184l.362-.65c.682.738 1.324 1.417 1.942 2.116.109.123.19.349.158.502-.105.518.186.765.56 1.005 1.255.807 2.502 1.63 3.755 2.438a.746.746 0 00.361.121c1.227.036 2.453.06 3.776.09-.19-.564-.28-1.204-.595-1.7-.958-1.506-.37-3.425 1.313-4 .048-.016.093-.046.114-.057-.015-.3-.102-.609-.029-.87.217-.77.481-.85 1.182-.416.41-.217.804-.357 1.303-.06.225.136.653-.027.976-.105.554-.134.659-.104.725.454.039.322-.02.657-.038 1.041.74.333 1.33.896 1.634 1.727.3.818.266 1.591-.305 2.297-.364.45-.435.973-.406 1.548 1.303 0 2.553.045 3.798-.015.9-.042 1.737-.38 2.417-.993a77.676 77.676 0 002.34-2.219.925.925 0 00.264-.53c.107-1.127.757-1.978 1.426-2.957l.436.798c.186-.233.333-.454.517-.638.291-.29.632-.352 1-.125.341.21.495.51.33.95-.228.609-.475 1.233-.841 1.763a7.687 7.687 0 01-1.435 1.55c-.425.348-.741.735-.951 1.219-.595 1.365-1.604 2.318-2.933 2.938-.786.368-1.534.768-2.174 1.377-.413.391-.922.682-1.423 1.043.166.916.473 1.86-.006 2.824-.327-.118-.613-.258-.913-.314-.34-.084-.447.11-.443.189.193.028.485.214.596.294.379.272.564.447.895.768.955.928.982 2.114.519 3.373.16.049.299.08.43.132 1.66.668 2.951 1.66 3.272 3.574.119.71-.127 1.312-.456 1.862-.344.577-.801 1.049-1.512 1.29-.787.267-1.507.726-2.261 1.092a7.33 7.33 0 01-.796.324c-.211.072-.516.043-.631.182-.227.273-.514.649-.484.953.078.809-.027 1.715.685 2.336a4.1 4.1 0 00.914.57c.253.12.492.229.481.541-.011.307-.238.483-.51.518-1.179.15-2.364.234-3.397-.524-.405-.297-.755-.681-.715-1.241.043-.591-.218-1.056-.515-1.53-.219-.351-.43-.727-.542-1.12-.257-.909.237-1.554 1.184-1.598.232-.01.466.048.706.075.297-.505.387-1.086.313-2.153-.782-.012-1.536-.168-2.239.485-.715.665-1.168.574-1.938-.047-.25-.202-.555-.336-.871-.522-.36.578-.72 1.035-.936 1.553-.111.267.032.64.06.966.19.024.292.042.395.05 1.108.076 1.417.437 1.369 1.538-.012.292-.113.489-.34.657-.676.503-1.09 1.184-1.31 1.992-.125.452-.44.738-.895.772-.754.056-1.513.076-2.268.055-.18-.005-.42-.205-.507-.378-.046-.093.138-.361.279-.477a3.953 3.953 0 001.05-1.352c.731-1.49.44-2.684-.934-3.605a24.673 24.673 0 00-1.604-.991 5.078 5.078 0 01-1.975-1.976c-.663-1.183-.279-2.803.856-3.546.523-.343 1.076-.643 1.677-.998-.03-.754.083-1.512.51-2.21.376-.612.598-1.23 1.264-1.561.124-.069.234-.112.382-.187.075-.039.401-.142.376-.184-.074-.122-.316-.286-.553-.182-.325.13-.736.303-1.067.625.065-.885.212-1.535.273-2.377-.342-.27-.731-.573-1.118-.88-1.068-.844-2.213-1.61-3.176-2.562-.712-.705-1.21-1.636-1.753-2.497a4.53 4.53 0 00-1.038-1.156c-.86-.681-1.77-1.33-2.26-2.365-.161-.342-.487-.71-.183-1.085.326-.4.77-.199 1.159-.048.317.122.619.283.942.434z" fill="#000"/></g><defs><clipPath id="clip0"><path fill="#fff" d="M0 0h200v200H0z"/></clipPath></defs></svg>